<?xml version="1.0" standalone="no"?>
<!DOCTYPE svg PUBLIC "-//W3C//DTD SVG 20010904//EN"
 "http://www.w3.org/TR/2001/REC-SVG-20010904/DTD/svg10.dtd">
<svg version="1.0" xmlns="http://www.w3.org/2000/svg"
 width="512.000000pt" height="512.000000pt" viewBox="0 0 512.000000 512.000000"
 preserveAspectRatio="xMidYMid meet">
<metadata>
Created by potrace 1.14, written by Peter Selinger 2001-2017
</metadata>
<g transform="translate(0.000000,512.000000) scale(0.100000,-0.100000)"
fill="#000000" stroke="none">
<path d="M1853 5105 c-282 -77 -421 -381 -292 -639 36 -74 111 -150 184 -187
l65 -34 0 -517 0 -517 -59 -98 c-32 -54 -138 -233 -236 -398 -98 -165 -203
-343 -235 -395 -31 -52 -129 -216 -217 -365 -88 -148 -231 -388 -317 -533
-198 -334 -225 -385 -252 -493 -76 -301 47 -623 306 -799 96 -65 151 -88 276
-114 59 -13 271 -15 1489 -15 953 0 1435 3 1465 10 25 6 52 12 61 14 42 9 119
39 169 67 243 136 391 392 388 668 -1 52 -6 111 -11 130 -5 19 -14 53 -19 75
-15 55 -75 173 -158 311 -38 63 -70 117 -70 118 0 2 -37 63 -81 137 -45 74
-92 152 -104 174 -13 22 -71 121 -130 220 -60 99 -116 194 -126 212 -10 17
-45 76 -77 130 -33 54 -173 288 -311 521 l-251 424 0 516 0 517 65 34 c229
118 302 422 154 645 -51 77 -132 138 -234 175 -59 22 -1364 27 -1442 6z m1363
-300 c42 -17 56 -31 78 -72 37 -73 2 -166 -76 -200 -39 -18 -1259 -18 -1308
-1 -120 41 -134 198 -24 264 l39 24 628 0 c528 0 633 -2 663 -15z m-206 -734
l0 -149 -102 -4 c-90 -3 -107 -6 -135 -27 -34 -25 -63 -84 -63 -127 0 -13 9
-42 20 -63 29 -58 84 -81 193 -81 l87 0 0 -150 0 -150 -85 0 c-53 0 -99 -6
-123 -15 -111 -45 -121 -200 -17 -260 24 -14 47 -25 51 -24 5 1 61 1 124 0
l115 -1 55 -93 c30 -50 177 -298 327 -551 150 -252 273 -460 273 -462 0 -4
-55 -29 -125 -55 -314 -120 -640 -44 -975 226 -126 102 -284 189 -446 246
-147 52 -217 63 -389 64 l-121 0 60 100 c32 55 107 180 165 278 138 231 157
263 186 319 l25 47 0 541 0 540 450 0 450 0 0 -149z m-1016 -1995 c165 -40
326 -125 496 -262 174 -139 417 -254 625 -295 100 -20 322 -17 415 4 93 22
210 62 270 92 88 44 82 47 147 -62 31 -54 62 -106 68 -115 5 -10 46 -77 89
-150 228 -384 234 -396 243 -503 11 -131 -35 -253 -132 -350 -33 -33 -82 -71
-108 -84 -109 -53 -49 -51 -1538 -51 -839 0 -1405 4 -1436 9 -107 21 -222 96
-281 185 -94 139 -106 330 -30 463 32 56 287 488 470 795 l158 267 58 21 c151
58 337 71 486 36z"/>
<path d="M1592 1484 c-98 -50 -108 -193 -18 -257 41 -29 130 -30 169 -1 31 22
67 89 67 124 0 34 -36 102 -66 123 -35 26 -111 32 -152 11z"/>
<path d="M3392 1183 c-90 -44 -109 -165 -37 -237 90 -90 238 -34 251 96 10
108 -114 191 -214 141z"/>
<path d="M2492 883 c-97 -47 -108 -192 -20 -254 17 -13 49 -23 76 -24 161 -11
221 205 77 275 -50 24 -89 25 -133 3z"/>
</g>
</svg>
